<?xml version="1.0" encoding="UTF-8" standalone="no"?>
<svg
   xmlns:dc="http://purl.org/dc/elements/1.1/"
   xmlns:cc="http://creativecommons.org/ns#"
   xmlns:rdf="http://www.w3.org/1999/02/22-rdf-syntax-ns#"
   xmlns:svg="http://www.w3.org/2000/svg"
   xmlns="http://www.w3.org/2000/svg"
   viewBox="0 0 1920 1080"
   height="1080"
   width="1920"
   xml:space="preserve"
   id="svg2"
   version="1.1"><metadata
     id="metadata8"><rdf:RDF><cc:Work
         rdf:about=""><dc:format>image/svg+xml</dc:format><dc:type
           rdf:resource="http://purl.org/dc/dcmitype/StillImage" /></cc:Work></rdf:RDF></metadata><defs
     id="defs6"><clipPath
       id="clipPath14"
       clipPathUnits="userSpaceOnUse"><path
         id="path12"
         d="M 0,7.920007 H 1440 V 817.92 H 0 Z" /></clipPath><clipPath
       id="clipPath24"
       clipPathUnits="userSpaceOnUse"><path
         style="clip-rule:evenodd"
         id="path22"
         d="M 0,0 H 6000 V 3406.25 H 0 Z" /></clipPath><clipPath
       id="clipPath36"
       clipPathUnits="userSpaceOnUse"><path
         style="clip-rule:evenodd"
         id="path34"
         d="M 0,0 H 6000 V 3375 H 0 Z" /></clipPath><clipPath
       id="clipPath48"
       clipPathUnits="userSpaceOnUse"><path
         style="clip-rule:evenodd"
         id="path46"
         d="M 0,0 H 6000 V 3375 H 0 Z" /></clipPath><clipPath
       id="clipPath60"
       clipPathUnits="userSpaceOnUse"><path
         style="clip-rule:evenodd"
         id="path58"
         d="m 2378.7371,1066.2369 h 1243.75 v 1243.7499 h -1243.75 z" /></clipPath><linearGradient
       id="linearGradient68"
       spreadMethod="pad"
       gradientTransform="matrix(95.51999,0,0,-95.51999,182.68701,179.8474)"
       gradientUnits="userSpaceOnUse"
       y2="1.00693"
       x2="1.0169001"
       y1="0"
       x1="0"><stop
         id="stop64"
         offset="0"
         style="stop-opacity:1;stop-color:#f66e1a" /><stop
         id="stop66"
         offset="1"
         style="stop-opacity:1;stop-color:#743ee3" /></linearGradient><clipPath
       id="clipPath78"
       clipPathUnits="userSpaceOnUse"><path
         style="clip-rule:evenodd"
         id="path76"
         d="m 2663.4272,1331.3385 h 671.875 v 712.5 h -671.875 z" /></clipPath></defs><g
     clip-path="url(#clipPath14)"
     transform="matrix(1.3333333,0,0,-1.3333333,0,1090.56)"
     id="g10"><g
       transform="matrix(0.31999998,0,0,0.31999998,0,5.3930666e-5)"
       id="g16"><g
         id="g18"><g
           clip-path="url(#clipPath24)"
           id="g20"><g
             transform="scale(3.125)"
             id="g26"><path
               id="path28"
               style="fill:#ffffff;fill-opacity:1;fill-rule:nonzero;stroke:none"
               d="M 0,0 H 1920 V 1090 H 0 Z" /></g></g></g><g
         id="g30"><g
           clip-path="url(#clipPath36)"
           id="g32"><g
             transform="scale(3.125)"
             id="g38"><path
               id="path40"
               style="fill:#ffffff;fill-opacity:1;fill-rule:nonzero;stroke:none"
               d="M 0,0 H 1920 V 1080 H 0 Z" /></g></g></g><g
         id="g42"><g
           clip-path="url(#clipPath48)"
           id="g44"><g
             transform="scale(3.125)"
             id="g50"><path
               id="path52"
               style="fill:#ffffff;fill-opacity:1;fill-rule:nonzero;stroke:none"
               d="M 0,0 H 1920 V 1080 H 0 Z" /></g></g></g><g
         id="g54"><g
           clip-path="url(#clipPath60)"
           id="g56"><g
             transform="matrix(6.2187495,0,0,6.2187495,2378.7371,1066.2369)"
             id="g62"><path
               id="path70"
               style="fill:url(#linearGradient68);fill-opacity:1;fill-rule:nonzero;stroke:none"
               d="m 200,100 c 0,1.63657 -0.0402,3.27216 -0.12047,4.90677 -0.0803,1.6346 -0.20065,3.26626 -0.36107,4.89495 -0.16041,1.62869 -0.36068,3.25246 -0.60081,4.87131 -0.24013,1.61886 -0.51984,3.23086 -0.83913,4.83599 -0.31929,1.60512 -0.67775,3.20145 -1.07541,4.78898 -0.39764,1.58754 -0.834,3.16435 -1.30908,4.73046 -0.47508,1.5661 -0.9883,3.1196 -1.53964,4.66049 -0.55135,1.54091 -1.14017,3.06737 -1.76647,4.57936 -0.62629,1.51201 -1.28929,3.00774 -1.98901,4.48718 -0.69972,1.47945 -1.43532,2.94084 -2.20679,4.38416 -0.77147,1.44333 -1.57789,2.86687 -2.41926,4.2706 -0.84139,1.40373 -1.71669,2.78598 -2.62592,4.14674 -0.90922,1.36076 -1.8513,2.69841 -2.82622,4.01293 -0.97489,1.31451 -1.98146,2.6043 -3.01968,3.8694 -1.03824,1.26509 -2.10689,2.50393 -3.20593,3.71655 -1.09908,1.21263 -2.22722,2.39755 -3.38445,3.55479 -1.15724,1.15723 -2.34216,2.28537 -3.55479,3.38443 -1.21262,1.09906 -2.45146,2.16771 -3.71655,3.20595 -1.2651,1.03822 -2.55489,2.04479 -3.8694,3.01968 -1.31452,0.97492 -2.65217,1.917 -4.01293,2.82622 -1.36076,0.90923 -2.74301,1.78453 -4.14674,2.62592 -1.40373,0.84137 -2.82727,1.64779 -4.2706,2.41926 -1.44332,0.77147 -2.90471,1.50707 -4.38416,2.20679 -1.47944,0.69972 -2.97517,1.36272 -4.48718,1.98901 -1.51199,0.6263 -3.03845,1.21512 -4.57936,1.76647 -1.54089,0.55134 -3.09439,1.06456 -4.66049,1.53963 -1.56611,0.47506 -3.14292,0.91142 -4.73046,1.30908 -1.58753,0.39766 -3.18386,0.75613 -4.78898,1.07541 -1.60513,0.31927 -3.21713,0.59898 -4.83599,0.83911 -1.61885,0.24014 -3.24263,0.44043 -4.87132,0.60084 -1.62868,0.16042 -3.26034,0.28076 -4.89494,0.36107 C 103.27216,199.95984 101.63657,200 100,200 c -1.636574,0 -3.272163,-0.0402 -4.906769,-0.12047 -1.634605,-0.0803 -3.26625,-0.20065 -4.894943,-0.36107 -1.6287,-0.16041 -3.25248,-0.36068 -4.871346,-0.60081 -1.618858,-0.24013 -3.23085,-0.51984 -4.835975,-0.83913 -1.605126,-0.31929 -3.201454,-0.67775 -4.788986,-1.07541 -1.587532,-0.39764 -3.164345,-0.834 -4.730454,-1.30908 -1.566109,-0.47508 -3.119614,-0.9883 -4.660522,-1.53964 -1.540902,-0.55135 -3.067353,-1.14017 -4.57935,-1.76647 -1.511997,-0.62629 -3.007721,-1.28929 -4.487167,-1.98901 -1.479447,-0.69972 -2.940834,-1.43532 -4.384159,-2.20679 -1.443333,-0.77147 -2.866867,-1.57789 -4.270604,-2.41926 -1.403736,-0.84139 -2.785987,-1.71669 -4.146751,-2.62592 -1.360763,-0.90922 -2.698398,-1.8513 -4.012909,-2.82622 -1.314506,-0.97489 -2.604305,-1.98146 -3.869392,-3.01968 -1.265091,-1.03824 -2.503948,-2.10689 -3.716568,-3.20593 -1.212624,-1.09908 -2.397553,-2.22722 -3.554785,-3.38445 -1.157232,-1.15724 -2.285378,-2.34216 -3.384434,-3.55479 -1.099054,-1.21262 -2.167698,-2.45146 -3.20593,-3.71655 -1.038233,-1.2651 -2.044804,-2.55489 -3.019709,-3.8694 -0.974909,-1.31452 -1.916979,-2.65217 -2.82621,-4.01293 -0.909232,-1.36076 -1.784533,-2.74301 -2.625899,-4.14674 -0.841368,-1.40373 -1.647789,-2.82727 -2.419265,-4.2706 -0.771476,-1.44332 -1.507077,-2.90471 -2.2068035,-4.38416 C 8.9013433,141.27605 8.2383356,139.78032 7.6120458,138.26831 6.9857559,136.75632 6.3969383,135.22986 5.845593,133.68895 5.2942476,132.14806 4.7810388,130.59456 4.3059664,129.02846 3.8308938,127.46235 3.3945296,125.88554 2.9968743,124.298 2.5992191,122.71047 2.2407515,121.11414 1.9214717,119.50902 1.6021919,117.90389 1.3224842,116.29189 1.0823488,114.67303 0.84221345,113.05418 0.64193964,111.4304 0.4815273,109.80171 0.3211149,108.17303 0.20075727,106.54137 0.12045436,104.90677 0.04015146,103.27216 0,101.63657 0,100 c 0,-1.636574 0.04015146,-3.272163 0.12045436,-4.906769 0.0803029,-1.634605 0.20066054,-3.26625 0.36107294,-4.894943 0.16041234,-1.6287 0.36068615,-3.25248 0.6008215,-4.871346 0.2401354,-1.618858 0.5198431,-3.23085 0.8391229,-4.835975 0.3192798,-1.605126 0.6777474,-3.201454 1.0754026,-4.788986 0.3976553,-1.587532 0.834019,-3.164345 1.3090916,-4.730454 0.4750724,-1.566109 0.9882813,-3.119614 1.5396266,-4.660522 0.5513453,-1.540902 1.1401634,-3.067353 1.7664533,-4.57935 0.6262898,-1.511997 1.2892975,-3.007721 1.9890237,-4.487167 0.6997265,-1.479447 1.4353275,-2.940834 2.2068035,-4.384159 0.771476,-1.443333 1.577897,-2.866867 2.419264,-4.270604 0.841367,-1.403736 1.716668,-2.785987 2.6259,-4.146751 0.909231,-1.360763 1.851301,-2.698398 2.826208,-4.012909 0.974907,-1.314506 1.981478,-2.604305 3.019711,-3.869392 1.038232,-1.265091 2.106876,-2.503948 3.20593,-3.716568 1.099056,-1.212624 2.227202,-2.397553 3.384434,-3.554785 1.157232,-1.157232 2.342161,-2.285378 3.554785,-3.384434 1.21262,-1.099054 2.451473,-2.167698 3.716564,-3.20593 1.265091,-1.038233 2.55489,-2.044804 3.869396,-3.019709 1.314507,-0.974909 2.652142,-1.916979 4.012905,-2.82621 1.360764,-0.909232 2.743012,-1.784533 4.146748,-2.625899 1.403736,-0.841368 2.827274,-1.647789 4.270607,-2.419265 1.443329,-0.771476 2.904713,-1.507077 4.384155,-2.2068035 1.47945,-0.6997262 2.97517,-1.3627339 4.487167,-1.9890237 1.511998,-0.6262899 3.038449,-1.2151075 4.57935,-1.7664528 1.540916,-0.5513454 3.094421,-1.0645542 4.660522,-1.5396266 1.566109,-0.4750726 3.14293,-0.9114368 4.730462,-1.3090921 C 77.289505,2.5992191 78.885834,2.2407515 80.490959,1.9214717 82.096085,1.6021919 83.708084,1.3224842 85.326942,1.0823488 86.945808,0.84221345 88.569588,0.64193964 90.198288,0.4815273 91.826981,0.3211149 93.458626,0.20075727 95.093231,0.12045436 96.727837,0.04015146 98.363426,0 100,0 c 1.63657,0 3.27216,0.04015146 4.90677,0.12045436 1.6346,0.0803029 3.26626,0.20066054 4.89495,0.36107294 1.62869,0.16041234 3.25246,0.36068615 4.87131,0.6008215 1.61886,0.2401354 3.23086,0.5198431 4.83599,0.8391229 1.60512,0.3192798 3.20145,0.6777474 4.78898,1.0754026 1.58754,0.3976553 3.16435,0.834019 4.73046,1.3090916 1.5661,0.4750724 3.1196,0.9882813 4.66049,1.5396266 1.54091,0.5513453 3.06737,1.1401634 4.57936,1.7664533 1.51201,0.6262898 3.00774,1.2892975 4.48718,1.9890237 1.47945,0.6997265 2.94084,1.4353275 4.38416,2.2068035 1.44333,0.771476 2.86687,1.577897 4.2706,2.419264 1.40373,0.841367 2.78598,1.716668 4.14674,2.6259 1.36076,0.909231 2.69841,1.851301 4.01293,2.826208 1.31451,0.974907 2.6043,1.981478 3.8694,3.019711 1.26509,1.038232 2.50393,2.106876 3.71655,3.20593 1.21263,1.099056 2.39755,2.227202 3.55479,3.384434 1.15723,1.157232 2.28537,2.342161 3.38443,3.554785 1.09906,1.21262 2.16771,2.451473 3.20595,3.716564 1.03822,1.265091 2.04479,2.55489 3.01968,3.869396 0.97492,1.314507 1.917,2.652142 2.82622,4.012905 0.90923,1.360764 1.78453,2.743012 2.62592,4.146748 0.84137,1.403736 1.64779,2.827274 2.41926,4.270607 0.77147,1.443329 1.50707,2.904713 2.20679,4.384155 0.69972,1.47945 1.36272,2.97517 1.98901,4.487167 0.6263,1.511998 1.21512,3.038449 1.76647,4.57935 0.55134,1.540916 1.06456,3.094421 1.53963,4.660522 0.47506,1.566109 0.91142,3.14293 1.30908,4.730462 0.39766,1.587524 0.75613,3.183853 1.07541,4.788978 0.31927,1.605126 0.59898,3.217125 0.83911,4.835983 0.24014,1.618866 0.44043,3.242646 0.60084,4.871346 0.16042,1.628693 0.28076,3.260338 0.36107,4.894943 C 199.95984,96.727837 200,98.363426 200,100 Z" /></g></g></g><g
         id="g72"><g
           clip-path="url(#clipPath78)"
           id="g74"><g
             transform="matrix(19.936943,0,0,19.980091,2639.5029,1346.928)"
             id="g80"><path
               id="path82"
               style="fill:#ffffff;fill-opacity:1;fill-rule:nonzero;stroke:none"
               d="M 16.806,10.675 C 15.886,8.6280003 14.803,6.6090002 13.78,4.415 13.752,4.3470001 13.729,4.277 13.698,4.2090001 13.634,4.0669999 13.561,3.9320002 13.49,3.796 L 13.438,3.6849999 13.436,3.688 C 11.798,0.69800007 8.3430004,-0.67400002 5.46,0.62099999 2.414,1.988 1.164,5.8130002 2.6700001,9.1630001 4.1750002,12.514 7.8639998,14.120001 10.91,12.752 c 0.106,-0.047 0.205,-0.105 0.306,-0.159 1.935,0.437999 1.993999,1.876999 1.993999,1.876999 0,0 4.618,-1.521 3.596001,-3.795 z M 4.8759999,8.1730003 C 3.9179997,6.0400004 4.6240001,3.6460004 6.4510002,2.8260002 8.2770004,2.0040002 10.535,3.0680003 11.493,5.2000003 c 0.958,2.132 0.253,4.5259995 -1.5729999,5.3460007 C 8.092,11.367001 5.8330002,10.305 4.8759999,8.1730003 Z" /><path
               id="path84"
               style="fill:#99aab5;fill-opacity:1;fill-rule:nonzero;stroke:none"
               d="m 26.978001,34.868 c 1.163,-0.657001 2.187,-2.473999 1.528999,-3.638 L 16.754,10.559 c -1.103,0.496 -2.938,2.313 -3.544001,3.912 l 13.768,20.397 z" /><path
               id="path86"
               style="fill:#ffffff;fill-opacity:1;fill-rule:nonzero;stroke:none"
               d="m 30.540001,0.62 c -2.882,-1.29500007 -6.337999,0.077 -7.976,3.0669998 l -0.003,-0.003 -0.053,0.112 c -0.071,0.135 -0.145,0.2700002 -0.208,0.4119999 -0.03,0.068 -0.053,0.1370001 -0.081,0.2059999 C 21.196,6.6079998 20.112,8.6269989 19.193,10.674 c -1.021,2.274 3.597,3.795999 3.597,3.795999 0,0 0.059,-1.439 1.993,-1.876999 0.101999,0.054 0.200001,0.111 0.306999,0.159 3.045,1.368 6.733,-0.238 8.240002,-3.5889999 C 34.835002,5.8130002 33.585002,1.9879999 30.54,0.61999989 Z m 0.584,7.5530003 C 30.165001,10.305 27.908001,11.367001 26.08,10.546001 24.254,9.7260008 23.549,7.3320007 24.507999,5.2000003 25.463999,3.0680003 27.722,2.0050004 29.549,2.8260002 31.375999,3.6460001 32.081001,6.04 31.124001,8.1730003 Z" /><path
               id="path88"
               style="fill:#ccd6dd;fill-opacity:1;fill-rule:nonzero;stroke:none"
               d="M 9.0220003,34.868 C 7.8590002,34.210999 6.835,32.394001 7.493,31.23 L 19.246,10.559 c 1.103001,0.496 2.938,2.313 3.544001,3.912 z" /><path
               id="path90"
               style="fill:#99aab5;fill-opacity:1;fill-rule:nonzero;stroke:none"
               d="m 19.562,17.396 c 0,0.863001 -0.701,1.562 -1.562,1.562 -0.863001,0 -1.562,-0.698999 -1.562,-1.562 0,-0.863001 0.698999,-1.562 1.562,-1.562 0.862,0 1.562,0.698999 1.562,1.562 z" /></g></g></g></g></g></svg>