<?xml version="1.0" standalone="no"?>
<!DOCTYPE svg PUBLIC "-//W3C//DTD SVG 20010904//EN"
 "http://www.w3.org/TR/2001/REC-SVG-20010904/DTD/svg10.dtd">
<svg version="1.0" xmlns="http://www.w3.org/2000/svg"
 width="70.000000pt" height="73.000000pt" viewBox="0 0 70.000000 73.000000"
 preserveAspectRatio="xMidYMid meet">

<g transform="translate(0.000000,73.000000) scale(0.100000,-0.100000)"
fill="#000000" stroke="none">
<path d="M279 487 c-62 -42 -78 -116 -36 -178 62 -93 212 -64 232 45 22 113
-102 197 -196 133z m58 -53 c16 -26 17 -26 25 -5 11 30 38 38 54 17 17 -23 8
-45 -22 -52 -27 -7 -29 -19 -9 -54 23 -39 17 -48 -10 -15 -26 31 -27 31 -55
-15 -16 -28 -22 -2 -6 29 20 37 20 51 2 51 -27 0 -47 29 -36 51 15 26 36 24
57 -7z"/>
<path d="M296 432 c-3 -6 -1 -14 5 -17 15 -10 25 3 12 16 -7 7 -13 7 -17 1z"/>
<path d="M385 429 c-10 -15 3 -25 16 -12 7 7 7 13 1 17 -6 3 -14 1 -17 -5z"/>
</g>
</svg>
